<svg width="65" height="65" viewBox="0 0 101 101" fill="none" xmlns="http://www.w3.org/2000/svg">
<path d="M85.0526 26.5789V42.4732C85.0526 42.4732 74.4742 42.5263 74.4211 42.4732V26.5789H58.4737C58.4737 26.5789 58.5268 16.0005 58.4737 15.9474H74.4211V0H85.0526V15.9474H101V26.5789H85.0526ZM69.1053 47.8421V31.8947H53.1579V15.9474H10.6316C4.78421 15.9474 0 20.7316 0 26.5789V90.3684C0 96.2158 4.78421 101 10.6316 101H74.4211C80.2684 101 85.0526 96.2158 85.0526 90.3684V47.8421H69.1053ZM10.6316 90.3684L26.5789 69.1053L37.2105 85.0526L53.1579 63.7895L74.4211 90.3684H10.6316Z" fill="white"/>
</svg>
