<svg width="86" height="101" viewBox="0 0 86 101" fill="none" xmlns="http://www.w3.org/2000/svg">
<path d="M70.8991 96.9478C65.4009 102.278 59.3978 101.436 53.6191 98.9114C47.5037 96.3306 41.8933 96.2184 35.4413 98.9114C27.3624 102.39 23.0985 101.38 18.2735 96.9478C-9.10525 68.7274 -5.06575 25.7517 26.0159 24.1808C33.5899 24.5736 38.8637 28.3325 43.2959 28.6692C49.9162 27.3227 56.2559 23.4515 63.3251 23.9564C71.7968 24.6297 78.1926 27.9959 82.4004 34.0551C64.896 44.5466 69.0477 67.6054 85.0934 74.0573C81.8955 82.4729 77.7438 90.8324 70.843 97.0039L70.8991 96.9478ZM42.7349 23.8442C41.8933 11.333 52.0481 1.00987 63.7178 0C65.3448 14.4748 50.5894 25.2468 42.7349 23.8442Z" fill="#1E1E1E"/>
</svg>
