<svg width="102" height="101" viewBox="0 0 102 101" fill="none" xmlns="http://www.w3.org/2000/svg">
<path d="M0.5 79.9612V101H21.5388L83.5893 38.9495L62.5505 17.9107L0.5 79.9612ZM99.8593 22.6795C100.379 22.1605 100.792 21.544 101.074 20.8653C101.355 20.1866 101.5 19.459 101.5 18.7242C101.5 17.9894 101.355 17.2619 101.074 16.5832C100.792 15.9045 100.379 15.288 99.8593 14.7689L86.7311 1.64071C86.212 1.12061 85.5955 0.707986 84.9168 0.426451C84.2381 0.144915 83.5106 0 82.7758 0C82.041 0 81.3134 0.144915 80.6347 0.426451C79.956 0.707986 79.3395 1.12061 78.8205 1.64071L68.5535 11.9077L89.5923 32.9465L99.8593 22.6795Z" fill="white"/>
</svg>
