<svg width="103" height="101" viewBox="0 0 103 101" fill="none" xmlns="http://www.w3.org/2000/svg">
<path d="M32.027 12.6908C30.3282 12.6908 28.699 13.3585 27.4977 14.5471C26.2965 15.7356 25.6216 17.3476 25.6216 19.0285C25.6216 20.7093 26.2965 22.3213 27.4977 23.5099C28.699 24.6984 30.3282 25.3661 32.027 25.3661C33.7259 25.3661 35.3551 24.6984 36.5564 23.5099C37.7576 22.3213 38.4325 20.7093 38.4325 19.0285C38.4325 17.3476 37.7576 15.7356 36.5564 14.5471C35.3551 13.3585 33.7259 12.6908 32.027 12.6908ZM13.8997 12.6908C15.2231 8.97993 17.6773 5.76653 20.9239 3.49357C24.1706 1.2206 28.0498 0 32.027 0C36.0043 0 39.8835 1.2206 43.1302 3.49357C46.3768 5.76653 48.831 8.97993 50.1544 12.6908H96.0811C97.78 12.6908 99.4092 13.3585 100.61 14.5471C101.812 15.7356 102.487 17.3476 102.487 19.0285C102.487 20.7093 101.812 22.3213 100.61 23.5099C99.4092 24.6984 97.78 25.3661 96.0811 25.3661H50.1544C48.831 29.077 46.3768 32.2904 43.1302 34.5634C39.8835 36.8363 36.0043 38.057 32.027 38.057C28.0498 38.057 24.1706 36.8363 20.9239 34.5634C17.6773 32.2904 15.2231 29.077 13.8997 25.3661H6.40541C4.70659 25.3661 3.07735 24.6984 1.8761 23.5099C0.674855 22.3213 0 20.7093 0 19.0285C0 17.3476 0.674855 15.7356 1.8761 14.5471C3.07735 13.3585 4.70659 12.6908 6.40541 12.6908H13.8997ZM70.4595 44.7582C68.7607 44.7582 67.1314 45.4259 65.9302 46.6145C64.7289 47.803 64.0541 49.415 64.0541 51.0959C64.0541 52.7767 64.7289 54.3887 65.9302 55.5772C67.1314 56.7658 68.7607 57.4335 70.4595 57.4335C72.1583 57.4335 73.7876 56.7658 74.9888 55.5772C76.1901 54.3887 76.8649 52.7767 76.8649 51.0959C76.8649 49.415 76.1901 47.803 74.9888 46.6145C73.7876 45.4259 72.1583 44.7582 70.4595 44.7582ZM52.3322 44.7582C53.6556 41.0473 56.1097 37.8339 59.3564 35.5609C62.603 33.288 66.4823 32.0674 70.4595 32.0674C74.4367 32.0674 78.316 33.288 81.5626 35.5609C84.8093 37.8339 87.2634 41.0473 88.5868 44.7582H96.0811C97.78 44.7582 99.4092 45.4259 100.61 46.6145C101.812 47.803 102.487 49.415 102.487 51.0959C102.487 52.7767 101.812 54.3887 100.61 55.5772C99.4092 56.7658 97.78 57.4335 96.0811 57.4335H88.5868C87.2634 61.1444 84.8093 64.3578 81.5626 66.6308C78.316 68.9037 74.4367 70.1243 70.4595 70.1243C66.4823 70.1243 62.603 68.9037 59.3564 66.6308C56.1097 64.3578 53.6556 61.1444 52.3322 57.4335H6.40541C4.70659 57.4335 3.07735 56.7658 1.8761 55.5772C0.674855 54.3887 0 52.7767 0 51.0959C0 49.415 0.674855 47.803 1.8761 46.6145C3.07735 45.4259 4.70659 44.7582 6.40541 44.7582H52.3322ZM32.027 75.6339C30.3282 75.6339 28.699 76.3016 27.4977 77.4901C26.2965 78.6787 25.6216 80.2907 25.6216 81.9715C25.6216 83.6524 26.2965 85.2644 27.4977 86.4529C28.699 87.6415 30.3282 88.3092 32.027 88.3092C33.7259 88.3092 35.3551 87.6415 36.5564 86.4529C37.7576 85.2644 38.4325 83.6524 38.4325 81.9715C38.4325 80.2907 37.7576 78.6787 36.5564 77.4901C35.3551 76.3016 33.7259 75.6339 32.027 75.6339ZM13.8997 75.6339C15.2231 71.923 17.6773 68.7096 20.9239 66.4366C24.1706 64.1636 28.0498 62.943 32.027 62.943C36.0043 62.943 39.8835 64.1636 43.1302 66.4366C46.3768 68.7096 48.831 71.923 50.1544 75.6339H96.0811C97.78 75.6339 99.4092 76.3016 100.61 77.4901C101.812 78.6787 102.487 80.2907 102.487 81.9715C102.487 83.6524 101.812 85.2644 100.61 86.4529C99.4092 87.6415 97.78 88.3092 96.0811 88.3092H50.1544C48.831 92.0201 46.3768 95.2335 43.1302 97.5064C39.8835 99.7794 36.0043 101 32.027 101C28.0498 101 24.1706 99.7794 20.9239 97.5064C17.6773 95.2335 15.2231 92.0201 13.8997 88.3092H6.40541C4.70659 88.3092 3.07735 87.6415 1.8761 86.4529C0.674855 85.2644 0 83.6524 0 81.9715C0 80.2907 0.674855 78.6787 1.8761 77.4901C3.07735 76.3016 4.70659 75.6339 6.40541 75.6339H13.8997Z" fill="white"/>
</svg>
