<svg width="101" height="101" viewBox="0 0 101 101" fill="none" xmlns="http://www.w3.org/2000/svg">
<path d="M100.018 40.6096H95.95V40.4H50.5V60.6H79.0401C74.8764 72.3589 63.6881 80.8 50.5 80.8C33.7668 80.8 20.2 67.2332 20.2 50.5C20.2 33.7668 33.7668 20.2 50.5 20.2C58.224 20.2 65.2511 23.1138 70.6015 27.8735L84.8855 13.5896C75.8662 5.18383 63.8017 0 50.5 0C22.6114 0 0 22.6114 0 50.5C0 78.3886 22.6114 101 50.5 101C78.3886 101 101 78.3886 101 50.5C101 47.114 100.652 43.8088 100.018 40.6096Z" fill="#FFC107"/>
<path d="M5.82324 26.9948L22.415 39.1628C26.9045 28.0477 37.7771 20.2 50.5006 20.2C58.2246 20.2 65.2516 23.1139 70.6021 27.8735L84.886 13.5896C75.8667 5.18383 63.8023 0 50.5006 0C31.1035 0 14.282 10.9509 5.82324 26.9948Z" fill="#FF3D00"/>
<path d="M50.4996 101C63.5438 101 75.3961 96.008 84.3573 87.8902L68.7276 74.6642C63.488 78.6513 57.0838 80.8071 50.4996 80.8C37.3646 80.8 26.2116 72.4246 22.01 60.7363L5.54199 73.4244C13.8997 89.7789 30.8728 101 50.4996 101Z" fill="#4CAF50"/>
<path d="M100.018 40.6096H95.95V40.4H50.5V60.6H79.0401C77.0484 66.1965 73.4607 71.0868 68.7204 74.6668L68.728 74.6617L84.3577 87.8877C83.2518 88.8926 101 75.75 101 50.5C101 47.114 100.652 43.8088 100.018 40.6096Z" fill="#1976D2"/>
</svg>
