<svg width="92" height="92" viewBox="0 0 92 92" fill="none" xmlns="http://www.w3.org/2000/svg">
<circle cx="46" cy="46" r="46" fill="white"/>
<path d="M46 55.68C50.2416 55.68 53.68 52.2416 53.68 48C53.68 43.7585 50.2416 40.32 46 40.32C41.7585 40.32 38.32 43.7585 38.32 48C38.32 52.2416 41.7585 55.68 46 55.68Z" fill="#363636"/>
<path d="M38.8 24L34.408 28.8H26.8C24.16 28.8 22 30.96 22 33.6V62.4C22 65.04 24.16 67.2 26.8 67.2H65.2C67.84 67.2 70 65.04 70 62.4V33.6C70 30.96 67.84 28.8 65.2 28.8H57.592L53.2 24H38.8ZM46 60C39.376 60 34 54.624 34 48C34 41.376 39.376 36 46 36C52.624 36 58 41.376 58 48C58 54.624 52.624 60 46 60Z" fill="#363636"/>
</svg>
