<svg width="92" height="92" viewBox="0 0 92 92" fill="none" xmlns="http://www.w3.org/2000/svg">
<circle cx="46" cy="46" r="46" fill="white"/>
<path d="M56.1904 54.8695C58.4153 53.6328 58.127 48.8677 55.5485 44.2185C54.4425 42.2167 53.0825 40.5957 51.7226 39.4624C50.0964 40.6691 48.1266 41.3236 46.1016 41.33C44.0735 41.3255 42.1002 40.671 40.4715 39.4624C39.1116 40.5957 37.7553 42.2185 36.6456 44.2185C34.0653 48.8658 33.7807 53.6328 36.0109 54.8695C37.0046 55.4352 38.0526 55.0109 39.1333 53.9701C38.9309 55.0914 38.8296 56.2286 38.8305 57.3681C38.8305 62.6954 40.8976 67 43.4416 67C44.9756 67 45.7353 65.4316 46.0998 63.0326C46.4624 65.4152 47.224 67 48.7471 67C51.2802 67 53.3636 62.6936 53.3636 57.3681C53.3636 56.1714 53.2512 55.029 53.059 53.9719C54.1469 55.0145 55.1913 55.4461 56.1886 54.8731L56.1904 54.8695ZM46.098 39.5168C47.1267 39.5322 48.1483 39.3428 49.1032 38.9596C50.058 38.5765 50.9272 38.0072 51.66 37.285C52.3928 36.5628 52.9747 35.7021 53.3717 34.7529C53.7687 33.8037 53.973 32.785 53.9726 31.7561C53.9723 30.7272 53.7673 29.7087 53.3696 28.7598C52.9719 27.8109 52.3894 26.9505 51.6561 26.2288C50.9228 25.5071 50.0533 24.9385 49.0981 24.556C48.143 24.1736 47.1213 23.9849 46.0925 24.0009C44.0555 24.0328 42.1128 24.8645 40.6838 26.3165C39.2548 27.7685 38.4543 29.7243 38.455 31.7616C38.4557 33.7988 39.2576 35.754 40.6876 37.205C42.1176 38.656 44.061 39.4864 46.098 39.5168ZM61.6809 44.4379C63.3378 44.3895 64.9107 43.6972 66.0656 42.5081C67.2205 41.319 67.8665 39.7266 67.8665 38.0689C67.8665 36.4113 67.2205 34.8189 66.0656 33.6298C64.9107 32.4406 63.3378 31.7484 61.6809 31.6999C59.9913 31.7002 58.3709 32.3716 57.1763 33.5665C55.9817 34.7615 55.3108 36.382 55.311 38.0717C55.3112 39.7613 55.9827 41.3816 57.1776 42.5762C58.3725 43.7708 59.9931 44.4418 61.6827 44.4415L61.6809 44.4379ZM69.4415 48.3001C68.5313 46.6537 67.418 45.3228 66.301 44.3926C64.9649 45.3825 63.3474 45.9194 61.6845 45.9248C60.3137 45.9248 59.0372 45.5494 57.9202 44.9275C58.8196 46.9094 59.3763 48.9166 59.4796 50.7117C59.6501 53.4606 58.7906 55.4986 57.0717 56.4506C56.7035 56.6536 56.3029 56.791 55.8876 56.8568C55.7843 57.5676 55.7135 58.3074 55.7135 59.087C55.7135 63.4624 57.4089 66.9964 59.4996 66.9964C60.758 66.9964 61.3853 65.709 61.6827 63.7398C61.9783 65.6981 62.6038 66.9964 63.8586 66.9964C65.9347 66.9964 67.6483 63.4606 67.6483 59.0907C67.6483 58.1061 67.5522 57.1686 67.3944 56.2983C68.2865 57.1559 69.146 57.5095 69.9656 57.0381C71.7915 56.0227 71.5558 52.1097 69.4397 48.2983L69.4415 48.3001ZM30.515 44.4379C31.7744 44.4372 33.0052 44.0631 34.0519 43.3629C35.0987 42.6628 35.9143 41.668 36.3958 40.5043C36.8772 39.3406 37.0028 38.0603 36.7567 36.8253C36.5105 35.5902 35.9038 34.4559 35.013 33.5656C34.1223 32.6754 32.9876 32.0693 31.7524 31.8239C30.5172 31.5784 29.237 31.7048 28.0736 32.1868C26.9102 32.6689 25.9158 33.4852 25.2163 34.5323C24.5167 35.5794 24.1433 36.8105 24.1433 38.0698C24.1438 39.7596 24.8152 41.38 26.0101 42.5748C27.2049 43.7696 28.8253 44.4411 30.515 44.4415V44.4379ZM35.1116 56.4452C32.2249 54.8404 31.9602 50.0553 34.2847 44.9239C33.1358 45.5763 31.8381 45.9217 30.5168 45.9266C28.7834 45.9266 27.195 45.3463 25.8931 44.3926C24.7779 45.321 23.6664 46.6519 22.7526 48.2965C20.6365 52.1115 20.4044 56.0245 22.2322 57.0363C23.0481 57.5041 23.9094 57.1541 24.7961 56.3001C24.6348 57.221 24.5529 58.154 24.5513 59.0889C24.5513 63.4624 26.2467 66.9946 28.3373 66.9946C29.5957 66.9946 30.2231 65.7072 30.5205 63.7398C30.8196 65.6981 31.4452 66.9964 32.6963 66.9964C34.7761 66.9964 36.486 63.4606 36.486 59.0907C36.486 58.3055 36.4135 57.5639 36.3101 56.8531C35.8903 56.7877 35.4852 56.649 35.1134 56.4433L35.1116 56.4452Z" fill="#363636"/>
</svg>
