<svg width="70" height="101" viewBox="0 0 70 101" fill="none" xmlns="http://www.w3.org/2000/svg">
<path d="M35 0C15.65 0 0 15.8065 0 35.35C0 61.8625 35 101 35 101C35 101 70 61.8625 70 35.35C70 15.8065 54.35 0 35 0ZM35 47.975C31.6848 47.975 28.5054 46.6449 26.1612 44.2772C23.817 41.9096 22.5 38.6984 22.5 35.35C22.5 32.0016 23.817 28.7904 26.1612 26.4228C28.5054 24.0551 31.6848 22.725 35 22.725C38.3152 22.725 41.4946 24.0551 43.8388 26.4228C46.183 28.7904 47.5 32.0016 47.5 35.35C47.5 38.6984 46.183 41.9096 43.8388 44.2772C41.4946 46.6449 38.3152 47.975 35 47.975Z" fill="#F2F2F2"/>
</svg>
