<svg width="101" height="101" viewBox="0 0 101 101" fill="none" xmlns="http://www.w3.org/2000/svg">
<path d="M98.2809 0.106515L1.40958 32.4048C1.01295 32.5367 0.665837 32.7862 0.414373 33.1201C0.162908 33.454 0.0189952 33.8565 0.00175343 34.2741C-0.0154884 34.6917 0.0947581 35.1047 0.317845 35.4582C0.540932 35.8117 0.866296 36.0889 1.25071 36.2531L36.85 51.5107C37.0366 51.5915 37.2408 51.6226 37.443 51.6009C37.6451 51.5793 37.8381 51.5056 38.0033 51.3872L72.9024 26.45C73.9851 25.6851 75.3149 27.0149 74.55 28.0976L49.6128 62.9967C49.4964 63.1618 49.4244 63.354 49.4038 63.555C49.3832 63.7559 49.4146 63.9588 49.4951 64.1441L64.7469 99.7434C64.9105 100.128 65.1873 100.454 65.5404 100.677C65.8935 100.901 66.3063 101.012 66.7239 100.995C67.1415 100.978 67.5441 100.835 67.8784 100.584C68.2126 100.333 68.4626 99.9868 68.5952 99.5904L100.893 2.71321C101.015 2.3501 101.033 1.9603 100.945 1.58757C100.857 1.21485 100.668 0.873964 100.397 0.603204C100.126 0.332444 99.7852 0.142531 99.4124 0.0547926C99.0397 -0.0329456 98.644 -0.0150346 98.2809 0.106515Z" fill="white"/>
</svg>
