<svg width="88" height="101" viewBox="0 0 88 101" fill="none" xmlns="http://www.w3.org/2000/svg">
<path d="M73.1884 101C69.1224 101 65.6663 99.5271 62.82 96.5813C59.9738 93.6354 58.5507 90.0583 58.5507 85.85C58.5507 85.345 58.6727 84.1667 58.9167 82.315L24.6401 61.61C23.339 62.8725 21.8345 63.8623 20.1268 64.5794C18.4191 65.2965 16.5894 65.6534 14.6377 65.65C10.5717 65.65 7.11554 64.1771 4.26932 61.2313C1.42311 58.2854 0 54.7083 0 50.5C0 46.2917 1.42311 42.7146 4.26932 39.7688C7.11554 36.8229 10.5717 35.35 14.6377 35.35C16.5894 35.35 18.4191 35.7086 20.1268 36.4257C21.8345 37.1428 23.339 38.1309 24.6401 39.39L58.9167 18.685C58.754 18.0958 58.6532 17.5285 58.6141 16.9831C58.5751 16.4377 58.554 15.8267 58.5507 15.15C58.5507 10.9417 59.9738 7.36458 62.82 4.41875C65.6663 1.47292 69.1224 0 73.1884 0C77.2544 0 80.7105 1.47292 83.5568 4.41875C86.403 7.36458 87.8261 10.9417 87.8261 15.15C87.8261 19.3583 86.403 22.9354 83.5568 25.8813C80.7105 28.8271 77.2544 30.3 73.1884 30.3C71.2367 30.3 69.407 29.9415 67.6993 29.2244C65.9915 28.5073 64.4871 27.5191 63.186 26.26L28.9094 46.965C29.0721 47.5542 29.1745 48.1231 29.2168 48.6719C29.2591 49.2207 29.2786 49.83 29.2754 50.5C29.2721 51.17 29.2526 51.781 29.2168 52.3332C29.181 52.8853 29.0786 53.4526 28.9094 54.035L63.186 74.74C64.4871 73.4775 65.9915 72.4894 67.6993 71.7757C69.407 71.0619 71.2367 70.7034 73.1884 70.7C77.2544 70.7 80.7105 72.1729 83.5568 75.1188C86.403 78.0646 87.8261 81.6417 87.8261 85.85C87.8261 90.0583 86.403 93.6354 83.5568 96.5813C80.7105 99.5271 77.2544 101 73.1884 101Z" fill="#E8E8E8"/>
</svg>
